<?xml version="1.0" encoding="utf-8"?>
<!-- Generator: Adobe Illustrator 22.0.0, SVG Export Plug-In . SVG Version: 6.00 Build 0)  -->
<svg version="1.1"
	 id="图层_1" xmlns:cc="http://creativecommons.org/ns#" xmlns:dc="http://purl.org/dc/elements/1.1/" xmlns:rdf="http://www.w3.org/1999/02/22-rdf-syntax-ns#" xmlns:svg="http://www.w3.org/2000/svg"
	 xmlns="http://www.w3.org/2000/svg" xmlns:xlink="http://www.w3.org/1999/xlink" x="0px" y="0px" viewBox="0 0 118.1 120"
	 style="enable-background:new 0 0 118.1 120;" xml:space="preserve">
<style type="text/css">
	.st0{fill:#FFFFFF;}
	.st1{fill:#006098;}
	.st2{fill:#00487A;}
	.st3{fill:#0A67A1;}
</style>
<g id="g124" transform="translate(-215.21499,-275.679)">
	<ellipse id="ellipse18" class="st0" cx="274.2" cy="335.7" rx="59" ry="60"/>
	<g id="g122">
		<g id="g34">
			<path id="path20" class="st1" d="M236.2,318.1l-0.1-3.9l-2,1.1l-1.9-1.1l-0.7,1.3l-0.6-0.3l4-7.2l0.6,0.3l-0.7,1.3l1.9,1.1l0,2.3
				l3.4-2l0.3,0.6l-3.7,2.1l0.1,4.3L236.2,318.1z M232.9,311.5l-1,0.3l-0.2-0.6l1-0.3L232.9,311.5z M236,311.2l-1.6-0.9l-1.9,3.4
				l1.6,0.9l1.9-1.1L236,311.2z"/>
			<path id="path22" class="st1" d="M241.8,300.2l-1.2-0.1l0.1-0.6l1.2,0.1L241.8,300.2z M241.9,302.6l-1.1-1.3l6-5.1l1.1,1.3
				l-0.5,0.4l-0.6-0.8l-5,4.2l0.7,0.8L241.9,302.6z M243.9,298.5l-1.2-0.1l0.1-0.6l1.2,0.1L243.9,298.5z M243,301.5l3.6-3l0.6,0.7
				l-0.3,1.7l2.4-2.1l0.4,0.5l-2.7,2.3l1.4,1.7l-1.6,1.4l-0.4-0.5l1.1-0.9l-1-1.2l-3,2.5l-0.4-0.5l3-2.6l0.4-2l-3,2.5L243,301.5z
				 M245,296.9l0.1-1.2l0.6,0l-0.1,1.2L245,296.9z"/>
			<path id="path24" class="st1" d="M255.7,289.6l0.2,1l6-2.2l0.2,0.6l-6.1,2.2l0.2,1.4l0,0.1l6.3-2.2l1.6,4.5l-4,1.4l-0.2-0.6
				l3.4-1.2l-1.1-3.2l-6.3,2.2l-0.3-0.8l-0.5-3.1L255.7,289.6z M255.8,295.2l5.9-2.1l0.2,0.6l-5.9,2.1L255.8,295.2z"/>
			<path id="path26" class="st1" d="M273.3,286.4l-0.7,0.9l-0.1,6.8l-0.6,0l0.1-5.8l-0.7,0.9l-0.5-0.4l2-2.7L273.3,286.4z
				 M276.2,286.1l-0.3,0.8l2.7,0l0,0.7l-3,0l-0.4,1.1l3.5,0.1l0,0.7l-3.7-0.1l-0.4,1l0,0.1l3.5,0.1l0,0.9l-1.4,1.4l1.5,0.3l-0.1,0.6
				l-4.8-1l0.1-0.6l2.4,0.5l1.5-1.6l-3.4-0.1l0-0.9l0.3-0.9l-1.1,0l0-0.7l1.3,0l0.4-1.1l-1.5,0l0-0.7l1.7,0l0.4-1L276.2,286.1z"/>
			<path id="path28" class="st1" d="M289.1,288.3l-0.5,1.3l1.7,0.7l-0.2,0.6l-0.4-0.2l-1.4,3.5l-0.8,0.4l0.5,1.4l-0.6,0.2l-0.5-1.3
				l-1.3,0.6l-0.3-0.6l1.3-0.6l-0.3-0.8l1.4-3.5l-0.4-0.2l0.2-0.6l0.4,0.2l0.5-1.3L289.1,288.3z M287.8,293.8l1.3-3.3l-0.7-0.3
				l-1.3,3.3l0.2,0.6L287.8,293.8z M289.9,297.3l0.7-1.9l-2,0.9l-0.3-0.6l2.1-1l-1.7-0.7l0.2-0.6l2,0.8l0.3-0.7l-1.3-0.5l1-2.6
				l-0.7-0.3l0.2-0.6l0.7,0.3l0.3-0.7l0.6,0.2l-0.3,0.7l2,0.8l0.3-0.7l0.6,0.2l-0.3,0.7l0.7,0.3L295,292l-0.7-0.3l-1,2.6l-1.3-0.5
				l-0.3,0.7l2,0.8l-0.2,0.6l-1.7-0.7l0.9,2.2l-0.6,0.3l-0.9-2.1l-0.7,1.9L289.9,297.3z M292.9,293.5l0.8-2l-2-0.8l-0.8,2
				L292.9,293.5z M292.2,292.8l-0.5-1.2l0.6-0.3l0.5,1.2L292.2,292.8z"/>
			<path id="path30" class="st1" d="M302.5,299.2l3.5,3.1l-0.6,0.7l-1.7-0.1l2.4,2.1l-0.4,0.5l-2.7-2.4l-1.4,1.6l-1.5-1.4l0.4-0.5
				l1.1,1l1-1.1l-2.9-2.6l0.4-0.5l2.9,2.7l2,0.1l-2.9-2.6L302.5,299.2z M301.4,298.4l1.1-1.3l5.8,5.3l-1.1,1.3l-0.5-0.4l0.7-0.8
				l-4.8-4.4l-0.7,0.8L301.4,298.4z M303.6,297.9l0-1.2l0.6,0l0,1.2L303.6,297.9z M305.6,299.7l0-1.2l0.6,0l0,1.2L305.6,299.7z
				 M307.3,300.7l1.2-0.1l0.1,0.6l-1.2,0.1L307.3,300.7z"/>
			<path id="path32" class="st1" d="M308.2,312.6l6.9-3.7l1.1,2.1l-2,1.1l-1.3,0l0.3,0.6l-3,1.6l-0.6-1.1l0.6-0.3l0.3,0.6l1.9-1
				l-0.3-0.6l0.6-0.3l1.5,0l1.3-0.7l-0.5-0.9l-6.4,3.4L308.2,312.6z M314.4,318.2l-0.6-1.2l-1.9,1l0.1,0.3l0.9-0.2l0.1,0.6l-1.4,0.2
				l-0.7-1.3l2.5-1.3l-0.6-1.2l-1.8,1l-1.2-0.5l0.2-0.6l0.9,0.4l1.6-0.8l-0.5-0.9l0.6-0.3l2.4,4.5L314.4,318.2z M315.5,317.2l-2-3.9
				l0.6-0.3l2,3.9L315.5,317.2z M314.5,312.6l1.4-0.8l0.9,1.8l0.8-0.4l0.3,0.6l-0.8,0.4l0.9,1.8l-1.4,0.7l-0.3-0.6l0.8-0.4l-1.6-3.1
				l-0.9,0.5L314.5,312.6z"/>
		</g>
		<g id="g88">
			<path id="path36" class="st1" d="M228.1,335.3c-0.1,0-0.1,0-0.2,0c-0.1,0-0.1-0.1-0.2-0.1c0,0-0.1-0.1-0.1-0.2c0-0.1,0-0.1,0-0.2
				l0-2.6l0.3,0l0,2.2c0,0,0,0.1,0,0.1c0,0,0.1,0,0.1,0l1.2,0c0,0,0.1,0,0.1,0c0,0,0-0.1,0.1-0.1l0-1.7c0-0.1,0-0.2,0.1-0.3
				s0.2-0.1,0.3-0.1l0.7,0c0.1,0,0.2,0,0.3,0.1c0.1,0.1,0.1,0.2,0.1,0.4l0,2.7l-0.3,0l0-2.2c0-0.1,0-0.1,0-0.1c0,0-0.1-0.1-0.1-0.1
				l-0.6,0c0,0-0.1,0-0.1,0c0,0,0,0.1,0,0.1l0,1.7c0,0.1,0,0.2,0,0.2c0,0.1-0.1,0.1-0.1,0.2c-0.1,0-0.1,0.1-0.2,0.1
				c-0.1,0-0.1,0-0.2,0L228.1,335.3z"/>
			<path id="path38" class="st1" d="M231.4,340.4l-0.3,0l-0.2-2.2c0,0,0-0.1-0.1-0.1c0,0-0.1,0-0.1,0l-2.4,0.3c0,0-0.1,0-0.1,0.1
				c0,0,0,0.1,0,0.1l0.2,2.2l-0.3,0l-0.3-2.7c0-0.1,0-0.1,0-0.2c0-0.1,0-0.1,0.1-0.1c0,0,0.1-0.1,0.1-0.1c0,0,0.1,0,0.2-0.1l2.5-0.3
				c0.1,0,0.2,0,0.3,0.1c0.1,0.1,0.1,0.2,0.2,0.3L231.4,340.4z"/>
			<path id="path40" class="st1" d="M229,346.1l-0.2-0.8l1.9-0.4l-0.3-1.5l-1.9,0.4l-0.2-0.8l3.3-0.7l0.2,0.8l-1.1,0.2l0.3,1.5
				l1.1-0.2l0.2,0.8L229,346.1z"/>
			<path id="path42" class="st1" d="M229.7,348.7c0-0.1,0-0.1,0-0.2c0-0.1,0-0.1,0-0.2c0,0,0.1-0.1,0.1-0.1c0,0,0.1-0.1,0.1-0.1
				l2.8-0.9l1,3.1l-2.8,0.9c-0.1,0-0.1,0-0.2,0c-0.1,0-0.1,0-0.2,0c0,0-0.1-0.1-0.1-0.1c0,0-0.1-0.1-0.1-0.1L229.7,348.7z
				 M230.3,348.9C230.2,348.9,230.2,348.9,230.3,348.9c-0.1,0.1-0.1,0.1-0.1,0.2l0.4,1.3c0,0,0,0.1,0.1,0.1c0,0,0.1,0,0.1,0l2.5-0.8
				l-0.5-1.6L230.3,348.9z"/>
			<path id="path44" class="st1" d="M231.5,353.9c0-0.1,0-0.1,0-0.2s0-0.1,0-0.2c0-0.1,0-0.1,0.1-0.1c0,0,0.1-0.1,0.1-0.1l2.7-1.3
				l1.4,3l-2.7,1.3c-0.1,0-0.1,0-0.2,0c-0.1,0-0.1,0-0.2,0c-0.1,0-0.1,0-0.1-0.1c0,0-0.1-0.1-0.1-0.1L231.5,353.9z M232.1,354
				C232.1,354,232.1,354,232.1,354c-0.1,0.1-0.1,0.2-0.1,0.2l0.6,1.3c0,0,0,0.1,0.1,0.1c0,0,0.1,0,0.1,0l2.4-1.1l-0.7-1.5L232.1,354
				z"/>
			<path id="path46" class="st1" d="M234.6,358.9C234.5,358.9,234.5,358.9,234.6,358.9c-0.1,0.1-0.1,0.2-0.1,0.2l0.7,1.3l-0.3,0.2
				l-1-1.8c0-0.1,0-0.1-0.1-0.2c0-0.1,0-0.1,0-0.2c0-0.1,0-0.1,0.1-0.1c0,0,0.1-0.1,0.1-0.1l2.6-1.5l0.4,0.7L234.6,358.9z"/>
			<path id="path48" class="st1" d="M239.4,366.6c0,0-0.1-0.1-0.1-0.1c0-0.1,0-0.1,0-0.2c0-0.1,0-0.1,0-0.2c0-0.1,0.1-0.1,0.1-0.1
				l2.2-2l2.2,2.5l-2.2,2c0,0-0.1,0.1-0.2,0.1c-0.1,0-0.1,0-0.2,0c-0.1,0-0.1,0-0.2,0c-0.1,0-0.1-0.1-0.1-0.1L239.4,366.6z
				 M240,366.5c0,0,0,0.1-0.1,0.1c0,0,0,0.1,0,0.1l0.9,1c0,0,0.1,0,0.1,0c0,0,0.1,0,0.1,0l1.9-1.8l-1.1-1.2L240,366.5z"/>
			<path id="path50" class="st1" d="M242.8,370.3l2.2-2.6l2.4,2.1l-0.2,0.2l-1.8-1.6l-0.6,0.7l1.7,1.5l-0.2,0.2l-1.7-1.5l-1.2,1.4
				L242.8,370.3z"/>
			<path id="path52" class="st1" d="M252.1,376.6c0,0,0,0.1,0,0.1c0,0,0,0.1,0.1,0.1l1.3,0.7l-0.2,0.3l-1.7-1
				c-0.1,0-0.1-0.1-0.1-0.1c0,0-0.1-0.1-0.1-0.1c0-0.1,0-0.1,0-0.2c0-0.1,0-0.1,0.1-0.2l1.5-2.6l0.7,0.4L252.1,376.6z"/>
			<path id="path54" class="st1" d="M255.7,379l-0.7-0.3l1.4-3.1l0.7,0.3L255.7,379z"/>
			<path id="path56" class="st1" d="M258.8,380.3l1-2.9l-1.1-0.4l0.1-0.3l3,1.1l-0.1,0.3l-1.1-0.4l-1,2.9L258.8,380.3z"/>
			<path id="path58" class="st1" d="M263.3,381.8c-0.1,0-0.1,0-0.2-0.1c0,0-0.1-0.1-0.1-0.1c0,0,0-0.1-0.1-0.2c0-0.1,0-0.1,0-0.2
				l0.7-2.9l3.1,0.7l-0.1,0.3l-2.3-0.5l-0.2,0.9l2.2,0.5l-0.1,0.3l-2.2-0.5l-0.3,1.4c0,0,0,0.1,0,0.1c0,0,0.1,0.1,0.1,0.1l2.1,0.5
				l-0.1,0.3L263.3,381.8z"/>
			<path id="path60" class="st1" d="M271.6,379.7l-0.1,1.3c0,0.1,0,0.1-0.1,0.2c0,0.1-0.1,0.1-0.1,0.1c0,0-0.1,0.1-0.1,0.1
				c-0.1,0-0.1,0-0.2,0l-0.1,0l0.3,1.8l-0.8-0.1l-0.3-1.8l-1-0.1l-0.2,1.7l-0.8-0.1l0.4-3.4L271.6,379.7z M270.5,381
				c0,0,0.1,0,0.1,0c0,0,0.1-0.1,0.1-0.1l0.1-0.9l-1.5-0.2l-0.1,1.1L270.5,381z"/>
			<path id="path62" class="st1" d="M273.3,383.3l1.4-3.5l1.1,0l1.5,3.4l-0.9,0l-0.4-0.9l-1.9,0l-0.4,0.9L273.3,383.3z M274.3,382.1
				l1.6,0l-0.8-2L274.3,382.1z"/>
			<path id="path64" class="st1" d="M280.5,382.9l-0.4-3.1l-1.2,0.2l0-0.3l3.1-0.4l0,0.3l-1.2,0.2l0.4,3.1L280.5,382.9z"/>
			<path id="path66" class="st1" d="M285.1,382c-0.1,0-0.1,0-0.2,0c-0.1,0-0.1,0-0.2-0.1c0,0-0.1-0.1-0.1-0.1c0,0-0.1-0.1-0.1-0.2
				l-0.7-2.9l0.8-0.2l0.7,2.9c0,0,0,0.1,0.1,0.1c0,0,0.1,0,0.1,0l1.2-0.3c0,0,0.1,0,0.1-0.1c0,0,0-0.1,0-0.1l-0.7-2.9l0.8-0.2
				l0.7,2.9c0,0.1,0,0.1,0,0.2c0,0.1,0,0.1-0.1,0.2c0,0-0.1,0.1-0.1,0.1s-0.1,0.1-0.2,0.1L285.1,382z"/>
			<path id="path68" class="st1" d="M291.6,376.3l0.5,1.2c0,0.1,0,0.1,0,0.2c0,0.1,0,0.1,0,0.2c0,0.1-0.1,0.1-0.1,0.1
				c0,0-0.1,0.1-0.1,0.1l-0.1,0l1.1,1.4l-0.8,0.3l-1-1.4l-0.9,0.4l0.6,1.6l-0.8,0.3l-1.2-3.2L291.6,376.3z M291.2,378
				C291.2,377.9,291.2,377.9,291.2,378c0.1-0.1,0.1-0.2,0.1-0.2l-0.3-0.9l-1.4,0.6l0.4,1L291.2,378z"/>
			<path id="path70" class="st1" d="M295.2,378.3c-0.1,0-0.1,0-0.2,0.1c-0.1,0-0.1,0-0.2,0c-0.1,0-0.1,0-0.1-0.1
				c0,0-0.1-0.1-0.1-0.1l-1.4-2.7l2.8-1.5l0.1,0.3l-2.1,1.1l0.4,0.8l2-1.1l0.1,0.3l-2,1.1l0.7,1.3c0,0,0,0.1,0.1,0.1
				c0,0,0.1,0,0.1,0l1.9-1l0.1,0.3L295.2,378.3z"/>
			<path id="path72" class="st1" d="M303.5,373l-1.1-3.6l0.8-0.7l3.3,1.6l-0.7,0.6l-0.8-0.4l-1.4,1.3l0.3,0.9L303.5,373z
				 M303.5,371.4l1.2-1.1l-1.9-1L303.5,371.4z"/>
			<path id="path74" class="st1" d="M305.4,366.5l1.8-2.1c0,0,0.1-0.1,0.1-0.1c0.1,0,0.1,0,0.2,0c0.1,0,0.1,0,0.2,0
				c0.1,0,0.1,0,0.2,0.1l2.2,2l-0.5,0.6l-2.2-2c0,0-0.1,0-0.1,0c0,0-0.1,0-0.1,0.1l-0.9,1l2.3,2.1l-0.5,0.6L305.4,366.5z"/>
			<path id="path76" class="st1" d="M310.2,360.4c0,0,0.1-0.1,0.1-0.1c0,0,0.1-0.1,0.2-0.1c0.1,0,0.1,0,0.2,0c0.1,0,0.1,0,0.2,0.1
				l2.1,1.5c0.1,0,0.1,0.1,0.1,0.1c0,0.1,0.1,0.1,0.1,0.2s0,0.1,0,0.2c0,0.1,0,0.1-0.1,0.2l-1.6,2.2l-2.8-2L310.2,360.4z
				 M312.4,362.7c0,0,0-0.1,0-0.1c0,0,0-0.1-0.1-0.1l-2-1.4c0,0-0.1,0-0.1,0s-0.1,0-0.1,0.1l-0.8,1.1l2.3,1.6L312.4,362.7z"/>
			<path id="path78" class="st1" d="M316.7,353.2l-2.1-1.5l0.4-1l3.4,0.5l-0.2,0.5l-3.1-0.5l2.6,1.9l-0.2,0.4c0,0.1-0.1,0.1-0.1,0.2
				c-0.1,0-0.1,0.1-0.2,0.1l-2.9-0.4l2.6,1.7l-0.3,0.7l-2.9-1.9l0.4-1L316.7,353.2z"/>
			<path id="path80" class="st1" d="M319.2,348.9c0,0.1,0,0.1-0.1,0.2c0,0-0.1,0.1-0.1,0.1c0,0-0.1,0-0.2,0.1c-0.1,0-0.1,0-0.2,0
				l-2.9-0.8l0.8-3.1l0.3,0.1l-0.6,2.3l0.8,0.2l0.6-2.2l0.3,0.1l-0.6,2.2l1.4,0.4c0,0,0.1,0,0.1,0c0,0,0.1-0.1,0.1-0.1l0.6-2.1
				l0.3,0.1L319.2,348.9z"/>
			<path id="path82" class="st1" d="M317.4,340.7c0-0.1,0-0.1,0.1-0.2c0,0,0.1-0.1,0.1-0.1c0,0,0.1-0.1,0.2-0.1c0.1,0,0.1,0,0.2,0
				l2.5,0.4c0.1,0,0.1,0,0.2,0.1c0,0,0.1,0.1,0.1,0.1c0,0,0.1,0.1,0.1,0.1c0,0.1,0,0.1,0,0.2l-0.4,2.7l-3.4-0.5L317.4,340.7z
				 M320.4,341.7c0,0,0-0.1,0-0.1c0,0-0.1-0.1-0.1-0.1l-2.4-0.4c0,0-0.1,0-0.1,0c0,0-0.1,0.1-0.1,0.1l-0.2,1.4l2.7,0.4L320.4,341.7z
				"/>
			<path id="path84" class="st1" d="M321,337.8l-0.1,0.8l-3.4-0.2l0.1-0.8L321,337.8z"/>
			<path id="path86" class="st1" d="M321.2,335.8l-3.4-1.4l0-1.1l3.4-1.6l0,0.9l-0.8,0.4l0.1,2l0.9,0.4L321.2,335.8z M320,334.8
				l0-1.7L318,334L320,334.8z"/>
		</g>
		<path id="path90" class="st1" d="M330.8,333.8c-0.5-14.7-6.4-28.5-16.6-38.9c-10.2-10.3-23.8-16.3-38.1-16.8c-1.2,0-2.5,0-3.8,0
			c-15.1,0.5-29.2,7-39.5,18.2c-10.4,11.2-15.8,25.9-15.3,41.2c0.5,14.7,6.4,28.5,16.6,38.9c10.2,10.3,23.7,16.3,38.1,16.8
			c1.2,0,2.5,0,3.7,0c15.1-0.5,29.2-7,39.5-18.2C325.9,363.8,331.3,349.2,330.8,333.8 M329.3,336.7c0,1.2-0.1,2.5-0.2,3.8
			c-0.1,1.3-0.3,2.6-0.5,4.2l-0.1,0.4l-2.3-0.4l0.1-0.4c0-0.3,0.1-0.6,0.1-0.9c0.1-0.4,0.1-0.8,0.2-1.1l-0.6-0.1
			c-0.2,1.3-0.3,2.6-0.6,3.9c-0.2,1.3-0.6,2.6-1,4.2l0.6,0.2c0.2-0.5,0.3-1.1,0.4-1.6l0.2-0.8l2.2,0.6l-0.1,0.4
			c-0.3,1.2-0.6,2.5-1,3.6l-0.1,0.4l-0.4-0.1l0.4,0.2l-0.3,0.7c-0.4,1-0.7,2.1-1.2,3.2l-0.2,0.4l-2.1-0.9l0.2-0.4
			c0.3-0.6,0.5-1.2,0.7-1.9l-0.6-0.2c-0.4,1.2-0.9,2.4-1.5,3.7l-0.4-0.2l0.4,0.2c-0.5,1.2-1.1,2.4-1.9,3.8l0.5,0.3
			c0.2-0.3,0.4-0.7,0.5-1c0.1-0.3,0.3-0.5,0.4-0.8l0.2-0.4l2,1.1l-0.2,0.4c-0.8,1.5-1.4,2.7-2.1,3.7c-0.7,1.2-1.5,2.4-2.3,3.5
			l-0.2,0.3l-1.9-1.4l0.3-0.3c0.3-0.4,0.6-0.9,0.9-1.4c0.1-0.1,0.1-0.2,0.2-0.3l-0.5-0.3c-0.7,1.1-1.5,2.2-2.5,3.5l-0.5-0.4l0.5,0.4
			c-0.8,1-1.7,2.1-2.8,3.3l0.4,0.4l1.6-1.8l1.7,1.5l-0.3,0.3c-0.8,1-1.8,2.1-2.9,3.1v0c-0.9,1-2,1.9-2.9,2.8l-0.3,0.3l-1.5-1.8
			l0.3-0.3c0.4-0.3,0.8-0.7,1.2-1.1c0.1-0.1,0.2-0.2,0.3-0.3l-0.4-0.4c-1,0.9-2,1.8-3,2.6c-1.3,1-2.4,1.8-3.4,2.5l0.3,0.5
			c0.1-0.1,0.2-0.2,0.4-0.3c0.4-0.3,0.9-0.6,1.3-0.9l0.3-0.3l1.4,1.9l-0.8,0.6c-0.9,0.7-1.9,1.4-2.9,2c-1,0.7-2.1,1.3-3.1,1.8
			l-0.8,0.5l-1.1-2.1l2.1-1.2l-0.3-0.5c-1.1,0.6-2.3,1.3-3.5,1.8c-1.5,0.7-2.7,1.3-3.9,1.7l0.2,0.6c0.6-0.2,1.2-0.5,1.9-0.8l0.4-0.2
			l0.9,2.1l-0.4,0.2c-1.2,0.6-2.5,1-3.8,1.5l-0.1,0l-0.1-0.3l0.1,0.3c-1.5,0.5-2.7,0.9-4,1.2l-0.4,0.1l-0.6-2.2l0.4-0.1
			c0.3-0.1,0.6-0.2,0.9-0.2c0.4-0.1,0.7-0.2,1.1-0.3l-0.2-0.6c-1.6,0.5-2.9,0.8-4.1,1.1c-1.2,0.3-2.6,0.5-4.2,0.7l0.1,0.6
			c0.5-0.1,1.1-0.2,1.6-0.2l0.8-0.1l0.4,2.3l-0.4,0.1c-1.2,0.2-2.4,0.4-3.6,0.5l-0.5,0.1v0c-0.3,0-0.6,0-0.9,0.1
			c-1,0.1-2.1,0.1-3.2,0.1l-0.4,0l0-2.3l0.4,0c0.7,0,1.3,0,2-0.1l0-0.6c-1.2,0.1-2.4,0.1-3.6,0.1l-0.4,0v0c-1.6,0-2.9-0.1-4.2-0.3
			l-0.1,0.6c0.1,0,0.3,0,0.4,0c0.5,0,1,0.1,1.6,0.1l0.4,0l-0.1,2.3l-0.4,0c-0.3,0-0.6-0.1-1-0.1c-1-0.1-2.1-0.2-3.1-0.4v0
			c-1.3-0.2-2.6-0.4-3.9-0.7l-0.6-0.1l0.5-2.3l2.4,0.5l0.1-0.6c-1.3-0.2-2.6-0.5-3.9-0.9c-1.6-0.4-2.9-0.8-4.1-1.2l-0.2,0.6
			c0.7,0.2,1.3,0.4,1.9,0.6l0.4,0.1l-0.7,2.2l-0.4-0.1c-1.2-0.3-2.4-0.8-3.5-1.2l-0.5-0.2l0.1-0.4l-0.2,0.4c-1.1-0.5-2.5-1-3.8-1.7
			l-0.4-0.2l1-2.1l0.4,0.2c0.2,0.1,0.4,0.2,0.7,0.3c0.4,0.2,0.8,0.4,1.2,0.5l0.2-0.6c-1.5-0.6-2.7-1.2-3.8-1.9
			c-1.2-0.6-2.4-1.4-3.7-2.2l-0.3,0.5c0.6,0.4,1.1,0.7,1.7,1.1l0.4,0.2l-1.2,2l-0.4-0.2c-1.1-0.6-2.1-1.3-3.1-2l-0.4-0.2l0,0
			l-0.6-0.4c-0.9-0.7-1.8-1.3-2.7-2.1l-0.3-0.3l1.4-1.8l0.3,0.3c0.5,0.4,1,0.8,1.6,1.3l0.4-0.5c-1-0.7-2-1.6-3.1-2.5
			c-1-0.8-2-1.8-3.1-2.9l-0.4,0.4c0.3,0.3,0.5,0.6,0.8,0.8c0.2,0.2,0.4,0.4,0.6,0.6l0.3,0.3l-1.6,1.7l-0.3-0.3c-1-0.9-1.9-1.9-2.9-3
			l0.4-0.3l-0.4,0.3c-0.9-1.1-1.8-2.1-2.6-3.2l-0.2-0.3l1.8-1.4l0.2,0.4c0.4,0.5,0.8,1.1,1.2,1.6l0,0l0.5-0.4c-0.8-1-1.5-2-2.4-3.2
			l0.4-0.3l-0.4,0.3c-0.8-1.1-1.5-2.2-2.3-3.6l-0.5,0.3l1.3,2.1l-1.9,1.3l-0.4-0.7c-0.7-1.1-1.3-2.2-1.9-3.4h0
			c-0.6-1-1.1-2.1-1.6-3.2l-0.4-1l2.1-1l0.2,0.4c0.2,0.5,0.4,1,0.7,1.4c0.1,0.1,0.1,0.3,0.2,0.4l0.5-0.3c-0.6-1.1-1.1-2.3-1.7-3.9
			l0.4-0.2l-0.4,0.2c-0.6-1.5-1-2.8-1.4-4l-0.6,0.2c0.1,0.1,0.1,0.3,0.1,0.4c0.2,0.5,0.3,1,0.5,1.5l0.1,0.4l-2.2,0.8l-0.4-1.1
			c-0.3-1.1-0.7-2.2-1-3.3l0,0c-0.3-1.2-0.6-2.4-0.8-3.6l-0.2-0.9l2.3-0.4l0.5,2.4l0.6-0.1c-0.3-1.3-0.5-2.6-0.7-3.9
			c-0.2-1.6-0.4-3-0.5-4.3l-0.6,0c0,0.6,0.1,1.3,0.2,2l0,0.4l-2.3,0.2l-0.1-0.4c-0.1-1-0.2-2.1-0.2-3.1c0-0.4,0-0.7-0.1-1l0.4,0
			l-0.4,0c0-0.4,0-0.8,0-1.1c0-1,0-2,0-3.1l0-0.4l2.3,0.1l0,0.4c0,0.6-0.1,1.3,0,2l0.6,0c0-1.3,0.1-2.6,0.2-3.9l0-0.1l0.4,0l-0.4,0
			c0.1-1.3,0.3-2.7,0.5-4.3l-0.6-0.1l-0.4,2.4l-2.3-0.3l0.1-1.1c0.2-1.2,0.3-2.4,0.6-3.5c0.2-1.1,0.5-2.2,0.7-3.3
			c0.1-0.3,0.1-0.5,0.2-0.8l0.1-0.4l2.2,0.6l-0.1,0.4c-0.1,0.5-0.3,1-0.4,1.5c0,0.1-0.1,0.3-0.1,0.4l0.6,0.1
			c0.3-1.3,0.7-2.6,1.1-4.1l0.4,0.1l-0.4-0.2c0.5-1.6,1-2.9,1.5-4l-0.6-0.2c-0.1,0.1-0.1,0.3-0.2,0.4c-0.2,0.5-0.4,1-0.6,1.5
			l-0.1,0.4l-2.2-0.8l0.3-0.8c0.4-1.1,0.9-2.3,1.4-3.4c0.5-1.2,1.2-2.4,1.8-3.6l0.3-0.5l2,1.1l-1.1,2.2l0.5,0.3
			c0.6-1.2,1.2-2.4,1.9-3.5c0.8-1.3,1.6-2.5,2.3-3.6l-0.5-0.4c-0.4,0.6-0.8,1.1-1.1,1.7l-0.2,0.4l-1.9-1.3l0.2-0.4
			c0.6-1,1.4-2,2.1-3l0.3-0.4l0.3,0.2l-0.3-0.2c1-1.3,1.8-2.3,2.7-3.2l0.3-0.3l1.7,1.6l-0.3,0.3c-0.2,0.2-0.4,0.4-0.6,0.7
			c-0.3,0.3-0.5,0.6-0.8,0.9l0.5,0.4c0.8-1,1.7-2,2.7-3c0.9-1,1.9-1.9,3.1-3l-0.4-0.5c-0.4,0.4-0.8,0.7-1.2,1.1l-0.6,0.6l-1.6-1.7
			l0.3-0.3c0.9-0.9,1.8-1.7,2.8-2.5l0.4-0.4l0.2,0.3l-0.2-0.3l0.6-0.5c0.9-0.7,1.8-1.4,2.7-2l0.3-0.2l1.3,1.9l-0.4,0.2
			c-0.5,0.4-1.1,0.8-1.6,1.2l0.4,0.5c1.2-0.9,2.3-1.7,3.5-2.4c1.1-0.7,2.3-1.4,3.7-2.1l-0.3-0.6c-0.4,0.2-0.8,0.4-1.1,0.6
			c-0.2,0.1-0.4,0.2-0.6,0.4l-0.4,0.2l-1.1-2l0.4-0.2c1.2-0.7,2.4-1.3,3.7-1.9l0,0c0,0,0,0,0,0l0.6-0.3c1-0.5,2.1-0.9,3.2-1.3
			l0.4-0.1l0.8,2.2l-0.4,0.1c-0.6,0.2-1.3,0.5-1.8,0.8l0.2,0.6c1.2-0.5,2.5-1,3.7-1.4c1.2-0.4,2.5-0.8,4.1-1.2l-0.1-0.6l-2.3,0.6
			l-0.6-2.2l1.1-0.3c1.1-0.3,2.2-0.6,3.3-0.8c1-0.2,2-0.4,3.1-0.6c0.3-0.1,0.7-0.1,1-0.2l0.4-0.1l0.3,2.3l-2.4,0.4l0.1,0.6
			c1.4-0.3,2.7-0.4,3.9-0.5l0,0.3l0-0.3c1.3-0.1,2.8-0.2,4.2-0.2l0-0.6c-0.6,0-1.3,0-2,0.1l-0.4,0l-0.1-2.3l0.4,0
			c1.1-0.1,2.2-0.1,3.3-0.1c0.3,0,0.6,0,0.9,0v0.4l0-0.4l0.4,0c1.2,0,2.5,0.1,3.7,0.2l0.4,0l-0.2,2.3l-0.8-0.1
			c-0.5-0.1-1.1-0.1-1.6-0.1l0,0.6c1.6,0.1,3,0.2,4.2,0.4c1.2,0.2,2.5,0.4,4.2,0.8l0.1-0.6c-0.4-0.1-0.7-0.2-1.1-0.2
			c-0.3-0.1-0.6-0.1-0.9-0.2l-0.4-0.1l0.4-2.3l0.4,0.1c1.2,0.2,2.5,0.5,4.1,0.9c1.4,0.4,2.6,0.7,3.8,1.2l0.4,0.1l-0.8,2.2l-0.4-0.2
			c-0.6-0.2-1.2-0.4-1.8-0.6l-0.1,0l-0.2,0.6c1.3,0.4,2.5,0.8,3.7,1.3c1.3,0.5,2.6,1.1,3.9,1.7l0.3-0.6l-2.2-1l0.9-2.1l0.4,0.2
			c0.2,0.1,0.5,0.2,0.7,0.4c1,0.5,2,0.9,3,1.5c1,0.5,2,1.1,3,1.8l0.9,0.6l-1.2,2l-0.4-0.2c-0.4-0.3-0.9-0.6-1.3-0.8
			c-0.1-0.1-0.2-0.1-0.4-0.2l-0.3,0.5c1.1,0.7,2.3,1.4,3.3,2.1l-0.3,0.4l0.3-0.4c1.3,0.9,2.4,1.8,3.4,2.6l0.4-0.5
			c-0.1-0.1-0.2-0.2-0.3-0.3c-0.4-0.3-0.8-0.7-1.2-1l-0.4-0.2l1.4-1.9l0.3,0.3c1.1,0.8,2.2,1.7,3.3,2.7c1.1,1,2.1,2,3,2.9l0.3,0.3
			l-1.6,1.6l-1.7-1.7l-0.4,0.4c1.2,1.1,2.1,2.1,3,3.1l-0.3,0.3l0.3-0.3c1.1,1.2,1.9,2.3,2.7,3.3l0.5-0.4c-0.1-0.1-0.1-0.2-0.2-0.3
			c-0.3-0.4-0.7-0.9-1-1.3l-0.3-0.3l1.8-1.5l0.3,0.3c0.9,1.2,1.8,2.2,2.5,3.3h0c0.7,1,1.5,2.2,2.3,3.5l0.2,0.4l-2,1.2l-0.2-0.4
			c-0.2-0.2-0.3-0.5-0.5-0.8c-0.2-0.3-0.4-0.7-0.6-1l-0.5,0.3c0.7,1,1.4,2.2,2,3.4h0c0.7,1.3,1.3,2.6,1.9,3.9l0.6-0.3
			c-0.3-0.7-0.6-1.3-0.9-1.8l-0.2-0.4l2.1-1l0.2,0.4c0.5,1,0.9,2,1.4,3c0.1,0.3,0.2,0.5,0.3,0.8l-0.4,0.2l0.4-0.1
			c0.1,0.3,0.2,0.5,0.3,0.8c0.4,1,0.8,2.1,1.1,3.1l0.1,0.4l-2.2,0.7l-0.1-0.4c-0.2-0.6-0.4-1.3-0.6-1.9l-0.6,0.2
			c0.4,1.1,0.8,2.3,1.2,3.8c0.4,1.5,0.7,2.9,1,4.2l0.6-0.1c-0.1-0.4-0.2-0.8-0.2-1.1c-0.1-0.3-0.1-0.6-0.2-0.9l-0.1-0.4l2.2-0.5
			l0.1,0.4c0.4,1.6,0.6,3,0.8,4.2c0.2,1.3,0.3,2.7,0.5,4l0,0.5l-2.3,0.2l0-0.4c0-0.5-0.1-1.1-0.2-1.6c0-0.1,0-0.3-0.1-0.4l-0.6,0.1
			c0.2,1.4,0.2,2.8,0.3,4.3l-0.4,0l0.4,0c0,1.5,0,2.9,0,4.3l0.6,0c0-0.2,0-0.3,0-0.5c0-0.5,0.1-1.1,0.1-1.6l0-0.4l2.3,0L329.3,336.7
			z"/>
		<path id="path92" class="st1" d="M300.1,380.8l0.4-0.2l1.2,2l-2.2,1.2l0.3,0.6l0.1-0.1c1-0.6,2.1-1.1,3.1-1.8l0.2,0.3l-0.2-0.4
			c1-0.6,2-1.3,2.9-2l0.1-0.1l-0.4-0.5c-0.3,0.2-0.6,0.5-1,0.7c-0.2,0.2-0.5,0.3-0.7,0.5l-0.4,0.2l-1.3-1.9l0.4-0.2
			c1.1-0.8,2.3-1.6,3.7-2.7l0,0c1.1-0.9,2.2-1.8,3.2-2.9l0.3-0.3l1.6,1.7l-0.3,0.3c-0.2,0.2-0.4,0.4-0.6,0.6
			c-0.3,0.3-0.6,0.5-0.9,0.8l0.4,0.5c0.9-0.8,1.8-1.6,2.6-2.5c0.9-0.9,1.8-1.9,2.6-2.8l-0.5-0.4l-1.6,1.9l-1.7-1.6l0.3-0.3
			c1.2-1.3,2.2-2.4,3-3.5c1.1-1.4,1.9-2.6,2.7-3.8l0.2-0.4l1.9,1.3l-0.2,0.4c-0.1,0.2-0.3,0.4-0.4,0.6c-0.2,0.4-0.5,0.7-0.7,1.1
			l0.5,0.4c0.7-1,1.4-2,2-3.1l0.4,0.2l-0.4-0.2c0.6-1,1.2-2,1.8-3.3l-0.6-0.3c-0.1,0.1-0.1,0.3-0.2,0.4c-0.2,0.5-0.5,0.9-0.8,1.4
			l-0.2,0.4l-2-1.1l0.2-0.4c0.9-1.6,1.5-2.9,2.1-4.1l0,0c0.6-1.5,1.2-2.7,1.6-4l0.1-0.4l2.2,0.8l-0.1,0.4c-0.2,0.7-0.5,1.3-0.7,1.9
			l0.6,0.2c0.4-0.9,0.7-1.8,1-2.7l0.3-0.7l0.1-0.4c0.3-1,0.6-2.1,0.9-3.2l-0.6-0.1c-0.2,0.7-0.3,1.4-0.5,2l-0.1,0.4l-2.2-0.7
			l0.1-0.4c0.5-1.7,0.9-3.2,1.1-4.5c0.3-1.4,0.5-2.9,0.7-4.3l0-0.4l2.3,0.3l-0.1,0.4c-0.1,0.5-0.1,1.1-0.2,1.6c0,0.2,0,0.3-0.1,0.5
			l0.6,0.1c0.2-1.3,0.3-2.5,0.4-3.6l0,0c0.1-1.3,0.2-2.5,0.2-3.8h-0.6c0,0.4,0,0.8,0,1.2c0,0.3,0,0.6,0,0.9l0,0.4l-2.3-0.1l0-0.4
			c0.1-1.5,0.1-3.1,0.1-4.6c-0.1-1.6-0.2-3.1-0.4-4.6l-0.1-0.4l2.3-0.3l0,0.4c0,0.3,0.1,0.6,0.1,0.9c0,0.4,0.1,0.8,0.1,1.2l0.6-0.1
			c-0.1-1.2-0.2-2.5-0.4-3.7l0.4-0.1l-0.4,0.1c-0.2-1.1-0.4-2.3-0.7-3.7l-0.6,0.1c0,0.2,0.1,0.3,0.1,0.5c0.1,0.5,0.2,1,0.3,1.6
			l0.1,0.4l-2.2,0.4l-0.1-0.4c-0.3-1.4-0.6-3-1-4.5l0.5-0.1l-0.5,0.1c-0.5-1.7-0.9-3-1.3-4.1l-0.1-0.4l2.1-0.8l0.2,0.4
			c0.3,0.7,0.5,1.3,0.7,2l0.6-0.2c-0.3-0.9-0.6-1.8-0.9-2.7c-0.1-0.3-0.2-0.5-0.3-0.8c-0.1-0.3-0.2-0.5-0.3-0.8
			c-0.4-0.9-0.7-1.7-1.1-2.6l-0.6,0.3c0.3,0.5,0.6,1.2,0.9,1.9l0.2,0.4l-2.1,0.9l-0.2-0.4c-0.6-1.4-1.3-2.8-2-4.1
			c-0.7-1.3-1.5-2.6-2.2-3.7l-0.2-0.4l1.9-1.3l0.2,0.4c0.3,0.4,0.6,0.9,0.9,1.4c0.1,0.1,0.2,0.3,0.2,0.4l0.5-0.3
			c-0.7-1.1-1.3-2.1-1.9-3c-0.7-1-1.4-2-2.2-3l-0.5,0.4c0.3,0.3,0.5,0.7,0.8,1c0.2,0.2,0.3,0.4,0.5,0.6l0.3,0.3l-1.8,1.4l-0.3-0.3
			c-0.8-1.1-1.7-2.3-2.9-3.6l0,0c-0.9-1-1.9-2.1-3.2-3.3l-0.3-0.3l1.6-1.7l1.8,1.7l0.4-0.4c-0.9-0.9-1.8-1.8-2.6-2.5l0.3-0.3
			l-0.3,0.3c-0.9-0.9-1.9-1.7-2.9-2.4l-0.4,0.5c0.3,0.2,0.6,0.5,0.9,0.7c0.2,0.2,0.4,0.4,0.7,0.5l0.3,0.3l-1.5,1.8l-0.3-0.3
			c-1.1-0.9-2.2-1.8-3.7-2.8h0c-1.2-0.8-2.4-1.6-3.6-2.3l-0.4-0.2l1.1-2l0.4,0.2c0.2,0.2,0.5,0.3,0.7,0.5c0.3,0.2,0.7,0.4,1,0.6
			l0.3-0.5l-0.2-0.1c-0.9-0.6-1.9-1.2-2.9-1.7l0.2-0.4l-0.2,0.4c-0.9-0.5-1.9-1-2.9-1.5c-0.1-0.1-0.2-0.1-0.3-0.2l-0.3,0.6l2.2,1.1
			l-1,2.1l-0.4-0.2c-1.4-0.7-2.8-1.3-4.2-1.9c-1.4-0.5-2.7-1-4.1-1.4l-0.4-0.1l0.7-2.2l0.9,0.3c0.5,0.2,1,0.3,1.5,0.5l0.2-0.6
			c-1.1-0.4-2.2-0.7-3.5-1.1c-1.4-0.4-2.5-0.6-3.5-0.8l-0.1,0.6c0.1,0,0.3,0.1,0.4,0.1c0.5,0.1,1,0.2,1.6,0.3l0.4,0.1l-0.5,2.2
			l-0.4-0.1c-1.8-0.4-3.2-0.7-4.5-0.9l0-0.4l-0.1,0.4c-1.3-0.2-2.8-0.4-4.6-0.4l-0.4,0l0.1-2.3l0.4,0c0.7,0,1.4,0.1,2.1,0.1l0.1-0.6
			c-1.1-0.1-2.2-0.2-3.3-0.2l-0.4,0c-0.3,0-0.6,0-0.9,0c-0.9,0-1.9,0-2.8,0l0,0.6c0.7,0,1.4,0,2.1,0h0.4l0,2.3l-0.4,0
			c-1.6,0-3.1,0.1-4.6,0.2c-1.3,0.1-2.7,0.3-4.3,0.6l-0.4,0.1l-0.4-2.3l2.4-0.4l-0.1-0.6c-0.2,0-0.4,0.1-0.6,0.1c-1,0.2-2,0.3-3,0.6
			l-0.1-0.4l0.1,0.4c-1.1,0.2-2.2,0.5-3.3,0.8l-0.3,0.1l0.2,0.6l2.4-0.6l0.5,2.3l-0.4,0.1c-1.7,0.4-3.1,0.8-4.4,1.3
			c-1.3,0.5-2.7,1-4,1.6l-0.4,0.2l-0.9-2.1l0.4-0.2c0.6-0.3,1.2-0.5,1.9-0.8l-0.2-0.6c-0.9,0.3-1.8,0.8-2.7,1.2l-0.6,0.3
			c-1.1,0.6-2.2,1.1-3.2,1.7l0.3,0.6c0.1-0.1,0.2-0.1,0.3-0.2c0.5-0.3,1-0.6,1.5-0.8l0.4-0.2l1,2.1L251,289c-1.5,0.8-2.8,1.5-4,2.3
			l-0.2-0.4l0.2,0.4c-1.2,0.8-2.5,1.6-3.8,2.6l-0.3,0.3l-1.4-1.8l0.3-0.3c0.5-0.4,1.1-0.8,1.7-1.2l-0.4-0.5
			c-0.8,0.6-1.6,1.2-2.3,1.7l-0.6,0.5l-0.4,0.4c-0.8,0.7-1.6,1.4-2.4,2.1l0.4,0.5c0.5-0.5,1-0.9,1.5-1.4l0.3-0.3l1.5,1.8l-0.3,0.3
			c-1.3,1.1-2.4,2.1-3.4,3.2l-0.3-0.3l0.3,0.3c-1,1-2,2.2-2.9,3.2l-0.3,0.3l-1.7-1.5l0.2-0.3c0.3-0.4,0.7-0.9,1.1-1.2
			c0.1-0.1,0.2-0.2,0.3-0.3l-0.5-0.4c-0.7,0.8-1.5,1.7-2.3,2.8l-0.3,0.4c-0.6,0.8-1.3,1.7-1.8,2.6l0.5,0.4c0.4-0.6,0.8-1.1,1.2-1.7
			l0.2-0.3l1.8,1.4l-0.2,0.3c-0.8,1.1-1.7,2.4-2.6,3.9c-0.7,1.2-1.4,2.5-2.1,3.8l-0.2,0.4l-2.1-1l1.2-2.2l-0.5-0.3
			c-0.6,1.1-1.1,2.1-1.6,3.2c-0.5,1.1-1,2.3-1.5,3.5l0,0l0.6,0.2c0.1-0.4,0.3-0.7,0.4-1.1c0.1-0.3,0.2-0.5,0.3-0.8l0.2-0.4l2.1,0.9
			l-0.2,0.4c-0.5,1.2-1,2.6-1.6,4.4c-0.5,1.6-0.9,3.1-1.2,4.5l-0.1,0.4l-2.2-0.5l0.1-0.4c0.1-0.3,0.1-0.6,0.2-0.8
			c0.1-0.4,0.2-0.8,0.3-1.2l-0.6-0.2c0,0.1-0.1,0.3-0.1,0.4c-0.3,1-0.5,2.1-0.7,3.2l-0.4-0.1l0.4,0.1c-0.2,1.2-0.4,2.3-0.6,3.5
			l0,0.2l0.6,0.1l0.4-2.5l2.3,0.4l-0.1,0.4c-0.3,1.7-0.5,3.2-0.6,4.6l0,0.1c-0.1,1.4-0.2,2.8-0.1,4.3l0,0.4l-2.3,0l0-0.4
			c0-0.7,0-1.4,0-2.1l-0.6,0c0,0.9,0,1.7,0,2.6c0,0.4,0,0.7,0,1.1c0,0.4,0,0.7,0.1,1.1c0,0.9,0.1,1.8,0.2,2.6l0.6-0.1
			c-0.1-0.8-0.1-1.4-0.2-2.1l0-0.4l2.3-0.1l0,0.4c0.1,1.4,0.2,2.8,0.5,4.6c0.2,1.4,0.5,2.9,0.8,4.2l0.1,0.4l-0.4,0.1l-1.8,0.4
			l-0.5-2.4l-0.6,0.1l0,0.1c0.2,1.2,0.5,2.3,0.8,3.5c0.3,1.1,0.6,2.2,1,3.3l0.1,0.2l0.6-0.2c-0.1-0.4-0.2-0.8-0.4-1.1
			c-0.1-0.3-0.2-0.6-0.3-0.8l-0.1-0.4l2.2-0.7l0.1,0.4c0.4,1.3,0.9,2.8,1.5,4.4c0.7,1.7,1.3,3,1.9,4.2l0.2,0.4l-2,1.1l-0.2-0.4
			c-0.1-0.3-0.2-0.5-0.4-0.8c-0.2-0.4-0.4-0.7-0.5-1.1l-0.6,0.3l0.1,0.2c0.5,1,1,2.1,1.5,3.1l-0.4,0.2l0.4-0.2
			c0.6,1.1,1.2,2.2,1.9,3.3l0.5-0.3l-1.3-2.1l2-1.2l0.2,0.4c0.9,1.5,1.7,2.8,2.5,3.9c1,1.3,1.8,2.4,2.6,3.4l0.3,0.3l-1.7,1.5
			l-0.6-0.7c-0.3-0.4-0.7-0.8-1-1.3l-0.5,0.4c0.7,1,1.5,1.9,2.3,2.8c0.8,0.9,1.7,1.8,2.5,2.7l0.4-0.5c-0.1-0.1-0.2-0.2-0.3-0.3
			c-0.4-0.4-0.8-0.8-1.1-1.2l-0.3-0.3l1.6-1.6l0.3,0.3c1.2,1.2,2.3,2.3,3.3,3.2h0c1.2,1,2.3,2,3.3,2.7l0.3,0.2l-1.4,1.9l-0.3-0.2
			c-0.6-0.4-1.1-0.9-1.6-1.3l-0.4,0.5c0.8,0.6,1.6,1.2,2.3,1.8l0.5,0.4l0.4,0.3c0.9,0.6,1.8,1.2,2.7,1.8l0.3-0.5
			c-0.6-0.3-1.2-0.7-1.7-1.1l-0.3-0.2l1.3-1.9l0.3,0.2c1.4,0.9,2.7,1.7,3.9,2.4l-0.2,0.4l0.2-0.4c1.2,0.7,2.5,1.3,4.1,2l0.4,0.2
			l-0.9,2.1l-0.4-0.1c-0.6-0.2-1.1-0.5-1.6-0.7c-0.1,0-0.2-0.1-0.3-0.1l-0.3,0.6c1.1,0.5,2.3,1,3.3,1.5l0.5,0.2c1,0.4,2,0.8,3,1.1
			l0.2-0.6c-0.6-0.2-1.2-0.4-1.9-0.7l-0.4-0.1l0.8-2.2l0.4,0.1c1.3,0.5,2.7,0.9,4.4,1.4l-0.1,0.3l0.1-0.3c1.4,0.4,2.8,0.6,4.1,0.9
			l0.5,0.1l-0.4,2.3l-2.4-0.5l-0.1,0.6c1.2,0.2,2.4,0.5,3.6,0.6l0,0.4l0.1-0.4c1,0.2,2.1,0.3,3.1,0.3c0.2,0,0.4,0,0.5,0l0-0.6
			c-0.4,0-0.8-0.1-1.2-0.1c-0.3,0-0.6-0.1-0.9-0.1l-0.4,0l0.3-2.3l0.4,0c1.4,0.2,2.9,0.3,4.5,0.3h0.4c1.3,0,2.6,0,3.9-0.1l0.4,0
			l0.1,2.3l-0.6,0c-0.6,0-1.3,0.1-1.9,0.1l0,0.6c0.9,0,1.8-0.1,2.7-0.1c0.3,0,0.6,0,1-0.1l0.4,0c1-0.1,2.1-0.2,3.2-0.4l-0.1-0.6
			c-0.7,0.1-1.4,0.2-2,0.3l-0.4,0l-0.3-2.3l0.4-0.1c1.8-0.2,3.2-0.4,4.5-0.7l0.1,0.4l-0.1-0.4c1.3-0.3,2.7-0.6,4.4-1.2l0.4-0.1
			l0.7,2.2l-0.4,0.1c-0.5,0.2-1,0.3-1.5,0.5c-0.1,0-0.3,0.1-0.4,0.1l0.2,0.6c1.1-0.3,2.2-0.6,3.5-1.1l0.1,0c1.1-0.4,2.3-0.8,3.4-1.3
			l-0.2-0.6c-0.6,0.3-1.2,0.5-1.8,0.7l-0.5,0.2l-0.8-2.2l0.4-0.1c1.3-0.5,2.6-1,4.2-1.8l0.4,0.8l-0.4-0.8
			C297.6,382.2,298.9,381.4,300.1,380.8 M275.8,386.4c-1.1,0-2.2,0-3.3,0c-26.2-0.9-47.4-22.4-48.3-49.1
			c-0.4-13.5,4.4-26.5,13.5-36.3c9.1-9.9,21.5-15.6,34.8-16c1.1,0,2.2,0,3.3,0c26.2,0.9,47.4,22.4,48.3,49.1
			c0.4,13.6-4.4,26.5-13.5,36.4C301.5,380.3,289.1,386,275.8,386.4"/>
		<path id="path94" class="st1" d="M269.5,367.6v0.3l1.2,0l0,2.1l-1.2,0l0,0.4l-0.3,0V370l-1.2,0l0-2.1l1.2,0l0-0.3L269.5,367.6z
			 M269.2,369.7l0-1.6h-0.9v1.5L269.2,369.7z M269.5,368.2l0,1.6h0.9l0-1.6H269.5z"/>
		<polygon id="polygon96" class="st1" points="271.3,370.2 272.6,368.9 272.6,368.5 271.4,368.5 271.4,368.2 272.6,368.2 
			272.6,367.6 272.9,367.6 272.9,368.2 274.2,368.2 274.2,368.5 272.9,368.5 272.9,368.9 274.2,370.2 274,370.4 272.8,369.2 
			271.6,370.4 		"/>
		<path id="path98" class="st1" d="M275.1,370.4h-0.3l0-2.1l1.3,0v-0.3l-1.3,0v-0.3l1.3,0l0-0.1l0.3,0l0,0.1h1.3v0.3l-1.3,0l0,0.3
			h1.3l0,2.1h-0.5v-0.3h0.2l0-1.5l-2.2,0V370.4z M276.4,369.8l0.7,0l0,0.3l-0.7,0v0.3l-0.3,0v-0.3l-0.7,0v-0.3h0.7l0-0.3h-0.7v-0.3
			l1,0l0.3-0.4l0.3,0.1l-0.3,0.3l0.4,0v0.3h-0.7L276.4,369.8z M275.8,368.8l0.3,0.2l-0.3,0.1l-0.3-0.2L275.8,368.8z"/>
		<polygon id="polygon100" class="st1" points="281.1,367.9 281.1,368.2 279,368.2 279,368.8 281.1,368.8 281,370.5 280.2,370.5 
			280.2,370.2 280.7,370.2 280.7,369.1 279,369.1 278.5,370.5 278.2,370.4 278.7,368.9 278.7,368.2 278.3,368.2 278.3,367.9 
			279.6,367.9 279.5,367.6 279.8,367.6 280,367.9 		"/>
		<path id="path102" class="st2" d="M244,364.5c0,0,14.6-16.1,25.3-15.8c16.6,0.4,35.2,14.9,35.2,14.9s-24.6-5.8-36.4-5.4
			C258.9,358.4,244,364.5,244,364.5"/>
		
			<rect id="rect104" x="278.7" y="334.6" transform="matrix(1.999996e-03 -1 1 1.999996e-03 -57.7041 615.4495)" class="st3" width="1.6" height="4"/>
		
			<rect id="rect106" x="274.6" y="329.6" transform="matrix(1.299999e-03 -1 1 1.299999e-03 -55.9286 607.6345)" class="st3" width="3.3" height="4.4"/>
		
			<rect id="rect108" x="281.2" y="329.6" transform="matrix(1.299999e-03 -1 1 1.299999e-03 -49.3447 614.2739)" class="st3" width="3.3" height="4.5"/>
		
			<rect id="rect110" x="274.6" y="324.1" transform="matrix(1.799997e-03 -1 1 1.799997e-03 -50.5738 601.9676)" class="st3" width="3.3" height="4.4"/>
		<path id="path112" class="st1" d="M283,304.4l-2.7,2c2.5,0.9,6,2.5,8.4,5.3c3.9,4.6,8.7,18,8.9,18.5l-2.8,1.8
			c0-0.1-4.9-14.1-8.4-18.3c-3.3-4-9.8-5.1-9.9-5.1c-0.5-0.1-0.9-0.4-1.1-0.8c-0.2,0.4-0.6,0.7-1.1,0.8c-0.1,0-7.1,1.1-10.5,5.1
			c-3.6,4.2-9.7,18-9.8,18.1l-2.6-1.7c0.2-0.6,6.2-13.9,10.1-18.4c2.4-2.9,6.2-4.5,9-5.3l-3-2.2c-3.6,0.4-8.5,1.5-9.9,3.4
			c-6.4,8.8-12,44.5-13.8,57c15-13.4,22.6-15.4,26.8-15c8.1,0.9,22.7,7.7,33.8,14c-1.7-14.3-6-45.7-11.7-54.3
			C291.5,307.3,286.8,305.4,283,304.4 M268.1,346l-2.1-0.1l1.2-18.1l-2.4,0l-1.9,17.9l-2.1-0.2l2-18.9l1.1-1l3.5,0l0.4-5.6l-4.6,0
			l0-2.2l5.8,0l1.1,1.2L268.1,346z M288.8,346l-9.3,0l-9.1,0l0-2.2l8,0l0-1.1l-5.5,0l-1.1-1.1l0-4.5l2.1,0l0,3.4l4.4,0v-0.9l-2,0
			l-1.1-1.1l0-2.9l-2.4,0l-1.1-1.1l0-11l1.1-1.1l5.5,0l0-1.4l-5.8,0l0-2.2l5.8,0l0-2l2.1,0l0,2l5.9,0l0,2.2l-5.9,0l0,1.4l5.6,0
			l1.1,1.1l0,11l-1.1,1.1l-2.6,0l0,2.8l-1.1,1.1l-2,0l0,0.9l4.5,0l0-3.7l2.1,0l0,4.8l-1.1,1.1l-5.6,0l0,1.1l8.2,0L288.8,346z"/>
		
			<rect id="rect114" x="281.2" y="324.1" transform="matrix(2.599991e-03 -1 1 2.599991e-03 -44.1912 608.3502)" class="st3" width="3.3" height="4.5"/>
		<path id="path116" class="st3" d="M314.4,336.7c0-20.4-14.6-37.4-33.8-40.7c0.8,1.5,1.5,3.7,2,5.1c2.7,0.7,9.5,3.6,12.8,6.5
			c7.4,6.4,24.1,21,11.8,52.5C311.7,353.4,314.4,345.4,314.4,336.7"/>
		<path id="path118" class="st3" d="M255.3,305.7c3.6-2.3,9.9-4.5,12.8-4.8c0.5-1.6,1.4-3.9,2.2-5.4c-20.8,1.8-37.1,19.5-37.1,41
			c0,9.3,3,17.9,8.1,24.8C227.5,324.5,247.7,310.5,255.3,305.7"/>
		<path id="path120" class="st3" d="M275.6,306.3c0.1-0.2,0.2-0.4,0.4-0.5l4-3c-0.8-2.5-2-5.6-2.4-6.1c-1.1-1.1-3.1-1.1-4.4,0.1
			c-0.5,0.5-1.6,3.4-2.3,5.8l4.3,3.2C275.3,305.9,275.5,306.1,275.6,306.3"/>
	</g>
</g>
</svg>
